<mxfile host="65bd71144e">
    <diagram id="mhQcTOuZlIRHOF-Qv37P" name="Aula01">
        <mxGraphModel dx="3930" dy="3504" grid="1" gridSize="10" guides="1" tooltips="1" connect="1" arrows="1" fold="1" page="1" pageScale="1" pageWidth="827" pageHeight="1169" math="0" shadow="0">
            <root>
                <mxCell id="0"/>
                <mxCell id="1" parent="0"/>
                <mxCell id="25" value="" style="whiteSpace=wrap;html=1;aspect=fixed;fontSize=18;fontColor=#FFFFFF;strokeColor=#FF3333;strokeWidth=2;" parent="1" vertex="1">
                    <mxGeometry x="10" y="-290" width="940" height="940" as="geometry"/>
                </mxCell>
                <mxCell id="2" value="" style="rounded=1;whiteSpace=wrap;html=1;strokeColor=#00CC00;strokeWidth=2;" parent="1" vertex="1">
                    <mxGeometry x="60" y="40" width="640" height="170" as="geometry"/>
                </mxCell>
                <mxCell id="3" value="&lt;font style=&quot;font-size: 18px&quot;&gt;Atendente&lt;/font&gt;" style="text;html=1;strokeColor=none;fillColor=none;align=center;verticalAlign=middle;whiteSpace=wrap;rounded=0;" parent="1" vertex="1">
                    <mxGeometry x="80" y="50" width="80" height="40" as="geometry"/>
                </mxCell>
                <mxCell id="7" style="edgeStyle=none;html=1;exitX=0.5;exitY=0.5;exitDx=0;exitDy=0;exitPerimeter=0;entryX=0;entryY=0.5;entryDx=0;entryDy=0;fontSize=18;" parent="1" source="4" target="6" edge="1">
                    <mxGeometry relative="1" as="geometry"/>
                </mxCell>
                <mxCell id="4" value="Cliente" style="shape=umlActor;verticalLabelPosition=bottom;verticalAlign=top;html=1;outlineConnect=0;fontSize=18;strokeColor=#3700CC;strokeWidth=2;fillColor=#6a00ff;fontColor=#ffffff;" parent="1" vertex="1">
                    <mxGeometry x="120" y="105" width="30" height="60" as="geometry"/>
                </mxCell>
                <mxCell id="6" value="Atendimento" style="rounded=1;whiteSpace=wrap;html=1;fontSize=18;strokeColor=#FF0080;strokeWidth=2;" parent="1" vertex="1">
                    <mxGeometry x="414" y="105" width="120" height="60" as="geometry"/>
                </mxCell>
                <mxCell id="8" value="" style="rounded=1;whiteSpace=wrap;html=1;strokeColor=#0000FF;strokeWidth=2;" parent="1" vertex="1">
                    <mxGeometry x="70" y="250" width="640" height="180" as="geometry"/>
                </mxCell>
                <mxCell id="10" value="&lt;font style=&quot;font-size: 18px&quot;&gt;Financeiro&lt;/font&gt;" style="text;html=1;strokeColor=none;fillColor=none;align=center;verticalAlign=middle;whiteSpace=wrap;rounded=0;" parent="1" vertex="1">
                    <mxGeometry x="80" y="250" width="80" height="40" as="geometry"/>
                </mxCell>
                <mxCell id="13" style="edgeStyle=none;html=1;exitX=0.5;exitY=0.5;exitDx=0;exitDy=0;exitPerimeter=0;entryX=0;entryY=0.5;entryDx=0;entryDy=0;fontSize=18;" parent="1" source="11" target="12" edge="1">
                    <mxGeometry relative="1" as="geometry"/>
                </mxCell>
                <mxCell id="22" style="edgeStyle=none;html=1;exitX=0.5;exitY=0.5;exitDx=0;exitDy=0;exitPerimeter=0;entryX=0;entryY=0.5;entryDx=0;entryDy=0;fontSize=18;fontColor=#FFFFFF;" parent="1" source="11" target="21" edge="1">
                    <mxGeometry relative="1" as="geometry"/>
                </mxCell>
                <mxCell id="11" value="&lt;font color=&quot;#ffffff&quot;&gt;Customer&lt;/font&gt;" style="shape=umlActor;verticalLabelPosition=bottom;verticalAlign=top;html=1;outlineConnect=0;fontSize=18;strokeColor=#B09500;strokeWidth=2;fillColor=#e3c800;fontColor=#000000;" parent="1" vertex="1">
                    <mxGeometry x="120" y="305" width="30" height="60" as="geometry"/>
                </mxCell>
                <mxCell id="12" value="Emissão&lt;br&gt;NFE" style="rounded=1;whiteSpace=wrap;html=1;fontSize=18;strokeColor=#FF0000;strokeWidth=2;" parent="1" vertex="1">
                    <mxGeometry x="240" y="270" width="120" height="60" as="geometry"/>
                </mxCell>
                <mxCell id="14" value="Cliente&lt;br&gt;Nome&lt;br&gt;Contato&lt;br&gt;Horário atendimento" style="shape=cylinder3;whiteSpace=wrap;html=1;boundedLbl=1;backgroundOutline=1;size=15;fontSize=18;fontColor=#FFFFFF;strokeColor=#00CC66;strokeWidth=2;" parent="1" vertex="1">
                    <mxGeometry x="750" width="170" height="185" as="geometry"/>
                </mxCell>
                <mxCell id="15" value="Customer&lt;br&gt;Nome&lt;br&gt;Contato&lt;br&gt;Valor da compra&lt;br&gt;ids de produtos&lt;br&gt;Valor pago&lt;br&gt;parcelamento&lt;br&gt;meio de pagamento" style="shape=cylinder3;whiteSpace=wrap;html=1;boundedLbl=1;backgroundOutline=1;size=15;fontSize=18;fontColor=#FFFFFF;strokeColor=#0000FF;strokeWidth=2;" parent="1" vertex="1">
                    <mxGeometry x="730" y="240" width="170" height="227.5" as="geometry"/>
                </mxCell>
                <mxCell id="16" value="Atendimento" style="text;html=1;strokeColor=none;fillColor=none;align=center;verticalAlign=middle;whiteSpace=wrap;rounded=0;fontSize=18;fontColor=#FFFFFF;" parent="1" vertex="1">
                    <mxGeometry x="805" width="60" height="30" as="geometry"/>
                </mxCell>
                <mxCell id="17" value="Financeiro" style="text;html=1;strokeColor=none;fillColor=none;align=center;verticalAlign=middle;whiteSpace=wrap;rounded=0;fontSize=18;fontColor=#FFFFFF;" parent="1" vertex="1">
                    <mxGeometry x="785" y="240" width="60" height="30" as="geometry"/>
                </mxCell>
                <mxCell id="21" value="Checkout" style="rounded=1;whiteSpace=wrap;html=1;fontSize=18;strokeColor=#FF0000;strokeWidth=2;" parent="1" vertex="1">
                    <mxGeometry x="240" y="350" width="120" height="60" as="geometry"/>
                </mxCell>
                <mxCell id="26" value="" style="rounded=1;whiteSpace=wrap;html=1;fontSize=18;fontColor=#FFFFFF;strokeColor=#FFFF00;strokeWidth=2;" parent="1" vertex="1">
                    <mxGeometry x="1170" y="10" width="2360" height="1050" as="geometry"/>
                </mxCell>
                <mxCell id="27" value="&lt;font style=&quot;font-size: 29px&quot;&gt;Financeiro&lt;/font&gt;" style="text;html=1;strokeColor=none;fillColor=none;align=center;verticalAlign=middle;whiteSpace=wrap;rounded=0;fontSize=18;fontColor=#FFFFFF;" parent="1" vertex="1">
                    <mxGeometry x="1190" y="20" width="220" height="70" as="geometry"/>
                </mxCell>
                <mxCell id="28" value="" style="rounded=1;whiteSpace=wrap;html=1;fontSize=29;fontColor=#ffffff;strokeColor=#432D57;strokeWidth=2;fillColor=#76608a;" parent="1" vertex="1">
                    <mxGeometry x="1210" y="90" width="950" height="210" as="geometry"/>
                </mxCell>
                <mxCell id="30" value="Checkout" style="text;html=1;strokeColor=none;fillColor=none;align=center;verticalAlign=middle;whiteSpace=wrap;rounded=0;fontSize=29;fontColor=#FFFFFF;" parent="1" vertex="1">
                    <mxGeometry x="1250" y="100" width="60" height="30" as="geometry"/>
                </mxCell>
                <mxCell id="33" style="edgeStyle=none;html=1;exitX=1;exitY=0.5;exitDx=0;exitDy=0;fontSize=29;fontColor=#FFFFFF;strokeWidth=2;" parent="1" source="31" target="32" edge="1">
                    <mxGeometry relative="1" as="geometry"/>
                </mxCell>
                <mxCell id="31" value="Cliente" style="rounded=1;whiteSpace=wrap;html=1;fontSize=29;fontColor=#FFFFFF;strokeColor=#80FF00;strokeWidth=2;" parent="1" vertex="1">
                    <mxGeometry x="1250" y="137.5" width="190" height="115" as="geometry"/>
                </mxCell>
                <mxCell id="45" style="edgeStyle=none;html=1;exitX=0.5;exitY=1;exitDx=0;exitDy=0;entryX=0.423;entryY=-0.035;entryDx=0;entryDy=0;entryPerimeter=0;fontSize=29;fontColor=#FFFFFF;strokeWidth=2;" parent="1" source="32" target="44" edge="1">
                    <mxGeometry relative="1" as="geometry"/>
                </mxCell>
                <mxCell id="32" value="Finalizar&amp;nbsp;&lt;br&gt;Compra" style="ellipse;whiteSpace=wrap;html=1;fontSize=29;fontColor=#FFFFFF;strokeColor=#80FF00;strokeWidth=2;" parent="1" vertex="1">
                    <mxGeometry x="1810" y="145" width="270" height="105" as="geometry"/>
                </mxCell>
                <mxCell id="34" value="" style="rounded=1;whiteSpace=wrap;html=1;fontSize=29;fontColor=#000000;strokeColor=#1AC73C;strokeWidth=2;fillColor=#fa6800;" parent="1" vertex="1">
                    <mxGeometry x="1210" y="397.5" width="940" height="245" as="geometry"/>
                </mxCell>
                <mxCell id="39" value="" style="edgeStyle=none;html=1;fontSize=29;fontColor=#FFFFFF;strokeWidth=2;entryX=0;entryY=0.5;entryDx=0;entryDy=0;" parent="1" source="35" target="37" edge="1">
                    <mxGeometry relative="1" as="geometry">
                        <mxPoint x="1590" y="520" as="targetPoint"/>
                    </mxGeometry>
                </mxCell>
                <mxCell id="47" style="edgeStyle=none;html=1;exitX=1;exitY=0;exitDx=0;exitDy=0;entryX=0;entryY=0.75;entryDx=0;entryDy=0;fontSize=29;fontColor=#FFFFFF;strokeWidth=2;" parent="1" source="35" target="44" edge="1">
                    <mxGeometry relative="1" as="geometry"/>
                </mxCell>
                <mxCell id="35" value="Cliente" style="rounded=1;whiteSpace=wrap;html=1;fontSize=29;fontColor=#FFFFFF;strokeColor=#80FF00;strokeWidth=2;" parent="1" vertex="1">
                    <mxGeometry x="1260" y="455" width="200" height="130" as="geometry"/>
                </mxCell>
                <mxCell id="36" value="Emissão de NFE" style="text;html=1;strokeColor=none;fillColor=none;align=center;verticalAlign=middle;whiteSpace=wrap;rounded=0;fontSize=29;fontColor=#FFFFFF;" parent="1" vertex="1">
                    <mxGeometry x="1240" y="410" width="220" height="30" as="geometry"/>
                </mxCell>
                <mxCell id="67" style="edgeStyle=none;html=1;exitX=0.5;exitY=1;exitDx=0;exitDy=0;fontSize=29;fontColor=#FFFFFF;strokeWidth=2;" parent="1" source="37" target="66" edge="1">
                    <mxGeometry relative="1" as="geometry"/>
                </mxCell>
                <mxCell id="37" value="Receber a nota por email" style="ellipse;whiteSpace=wrap;html=1;fontSize=29;fontColor=#FFFFFF;strokeColor=#80FF00;strokeWidth=2;" parent="1" vertex="1">
                    <mxGeometry x="1768" y="460" width="312" height="120" as="geometry"/>
                </mxCell>
                <mxCell id="44" value="Message Broker" style="rounded=1;whiteSpace=wrap;html=1;fontSize=29;fontColor=#FFFFFF;strokeColor=#FF0000;strokeWidth=2;" parent="1" vertex="1">
                    <mxGeometry x="1770" y="320" width="320" height="60" as="geometry"/>
                </mxCell>
                <mxCell id="46" value="PUB" style="text;html=1;strokeColor=none;fillColor=none;align=center;verticalAlign=middle;whiteSpace=wrap;rounded=0;fontSize=29;fontColor=#FFFFFF;" parent="1" vertex="1">
                    <mxGeometry x="1950" y="260" width="80" height="30" as="geometry"/>
                </mxCell>
                <mxCell id="48" value="SUB" style="text;html=1;strokeColor=none;fillColor=none;align=center;verticalAlign=middle;whiteSpace=wrap;rounded=0;fontSize=29;fontColor=#FFFFFF;" parent="1" vertex="1">
                    <mxGeometry x="1580" y="420" width="60" height="30" as="geometry"/>
                </mxCell>
                <mxCell id="49" value="" style="rounded=1;whiteSpace=wrap;html=1;fontSize=29;fontColor=#000000;strokeColor=#B09500;strokeWidth=2;fillColor=#e3c800;" parent="1" vertex="1">
                    <mxGeometry x="2010" y="750" width="940" height="260" as="geometry"/>
                </mxCell>
                <mxCell id="50" value="Acompanhamento" style="text;html=1;strokeColor=none;fillColor=none;align=center;verticalAlign=middle;whiteSpace=wrap;rounded=0;fontSize=29;fontColor=#FFFFFF;" parent="1" vertex="1">
                    <mxGeometry x="2210" y="760" width="60" height="30" as="geometry"/>
                </mxCell>
                <mxCell id="51" value="Emails para o cliente" style="ellipse;whiteSpace=wrap;html=1;fontSize=29;fontColor=#FFFFFF;strokeColor=#FF0000;strokeWidth=2;" parent="1" vertex="1">
                    <mxGeometry x="2690" y="835" width="250" height="110" as="geometry"/>
                </mxCell>
                <mxCell id="55" style="edgeStyle=none;html=1;exitX=1;exitY=0.5;exitDx=0;exitDy=0;entryX=0;entryY=0.5;entryDx=0;entryDy=0;fontSize=29;fontColor=#FFFFFF;strokeWidth=2;" parent="1" source="54" target="51" edge="1">
                    <mxGeometry relative="1" as="geometry"/>
                </mxCell>
                <mxCell id="56" style="edgeStyle=none;html=1;exitX=1;exitY=0;exitDx=0;exitDy=0;fontSize=29;fontColor=#FFFFFF;strokeWidth=2;entryX=0.5;entryY=1;entryDx=0;entryDy=0;" parent="1" source="54" target="66" edge="1">
                    <mxGeometry relative="1" as="geometry">
                        <mxPoint x="1680" y="640" as="targetPoint"/>
                    </mxGeometry>
                </mxCell>
                <mxCell id="71" style="edgeStyle=none;html=1;exitX=1;exitY=0;exitDx=0;exitDy=0;entryX=0;entryY=0.5;entryDx=0;entryDy=0;fontSize=29;fontColor=#FFFFFF;strokeWidth=2;" parent="1" source="54" target="65" edge="1">
                    <mxGeometry relative="1" as="geometry"/>
                </mxCell>
                <mxCell id="54" value="Usuario" style="rounded=1;whiteSpace=wrap;html=1;fontSize=29;fontColor=#FFFFFF;strokeColor=#FF0000;strokeWidth=2;" parent="1" vertex="1">
                    <mxGeometry x="2040" y="845" width="190" height="100" as="geometry"/>
                </mxCell>
                <mxCell id="57" value="SUB" style="text;html=1;strokeColor=none;fillColor=none;align=center;verticalAlign=middle;whiteSpace=wrap;rounded=0;fontSize=29;fontColor=#FFFFFF;" parent="1" vertex="1">
                    <mxGeometry x="2160" y="790" width="60" height="30" as="geometry"/>
                </mxCell>
                <mxCell id="59" value="" style="rounded=1;whiteSpace=wrap;html=1;fontSize=29;fontColor=#000000;strokeColor=#1AC73C;strokeWidth=2;fillColor=#fa6800;" parent="1" vertex="1">
                    <mxGeometry x="2250" y="405" width="940" height="245" as="geometry"/>
                </mxCell>
                <mxCell id="63" style="edgeStyle=none;html=1;exitX=1;exitY=0.5;exitDx=0;exitDy=0;entryX=0;entryY=0.5;entryDx=0;entryDy=0;fontSize=29;fontColor=#FFFFFF;strokeWidth=2;" parent="1" source="61" target="62" edge="1">
                    <mxGeometry relative="1" as="geometry"/>
                </mxCell>
                <mxCell id="61" value="Destinatário" style="rounded=1;whiteSpace=wrap;html=1;fontSize=29;fontColor=#FFFFFF;strokeColor=#1AC73C;strokeWidth=2;" parent="1" vertex="1">
                    <mxGeometry x="2300" y="467.5" width="220" height="122.5" as="geometry"/>
                </mxCell>
                <mxCell id="70" style="edgeStyle=none;html=1;exitX=0.5;exitY=1;exitDx=0;exitDy=0;fontSize=29;fontColor=#FFFFFF;strokeWidth=2;" parent="1" source="62" target="65" edge="1">
                    <mxGeometry relative="1" as="geometry"/>
                </mxCell>
                <mxCell id="62" value="Entrega" style="ellipse;whiteSpace=wrap;html=1;fontSize=29;fontColor=#FFFFFF;strokeColor=#1AC73C;strokeWidth=2;" parent="1" vertex="1">
                    <mxGeometry x="2880" y="460" width="260" height="140" as="geometry"/>
                </mxCell>
                <mxCell id="65" value="Message Broker" style="rounded=1;whiteSpace=wrap;html=1;fontSize=29;fontColor=#FFFFFF;strokeColor=#1AC73C;strokeWidth=2;" parent="1" vertex="1">
                    <mxGeometry x="2760" y="660" width="430" height="80" as="geometry"/>
                </mxCell>
                <mxCell id="66" value="Message Broker" style="rounded=1;whiteSpace=wrap;html=1;fontSize=29;fontColor=#FFFFFF;strokeColor=#1AC73C;strokeWidth=2;" parent="1" vertex="1">
                    <mxGeometry x="1680" y="660" width="430" height="80" as="geometry"/>
                </mxCell>
                <mxCell id="68" value="Entrega" style="text;html=1;strokeColor=none;fillColor=none;align=center;verticalAlign=middle;whiteSpace=wrap;rounded=0;fontSize=29;fontColor=#FFFFFF;" parent="1" vertex="1">
                    <mxGeometry x="2320" y="420" width="60" height="30" as="geometry"/>
                </mxCell>
            </root>
        </mxGraphModel>
    </diagram>
    <diagram id="qn6-9iyY-fgU1bSBjzag" name="Aula02">
        <mxGraphModel dx="1622" dy="609" grid="1" gridSize="10" guides="1" tooltips="1" connect="1" arrows="1" fold="1" page="1" pageScale="1" pageWidth="827" pageHeight="1169" math="0" shadow="0">
            <root>
                <mxCell id="CDULuu7c7V-zOSNpmikT-0"/>
                <mxCell id="CDULuu7c7V-zOSNpmikT-1" parent="CDULuu7c7V-zOSNpmikT-0"/>
                <mxCell id="bAe2VsyeaCXoE5g0ojeS-0" value="" style="whiteSpace=wrap;html=1;aspect=fixed;strokeColor=#FF0000;strokeWidth=3;" parent="CDULuu7c7V-zOSNpmikT-1" vertex="1">
                    <mxGeometry x="85" y="60" width="380" height="380" as="geometry"/>
                </mxCell>
                <mxCell id="bAe2VsyeaCXoE5g0ojeS-1" value="Rest" style="text;html=1;strokeColor=none;fillColor=none;align=center;verticalAlign=middle;whiteSpace=wrap;rounded=0;" parent="CDULuu7c7V-zOSNpmikT-1" vertex="1">
                    <mxGeometry x="70" y="30" width="60" height="30" as="geometry"/>
                </mxCell>
                <mxCell id="bAe2VsyeaCXoE5g0ojeS-2" value="" style="whiteSpace=wrap;html=1;aspect=fixed;strokeColor=#00FFFF;strokeWidth=3;" parent="CDULuu7c7V-zOSNpmikT-1" vertex="1">
                    <mxGeometry x="630" y="55" width="280" height="280" as="geometry"/>
                </mxCell>
                <mxCell id="bAe2VsyeaCXoE5g0ojeS-3" value="GraphQL" style="text;html=1;strokeColor=none;fillColor=none;align=center;verticalAlign=middle;whiteSpace=wrap;rounded=0;" parent="CDULuu7c7V-zOSNpmikT-1" vertex="1">
                    <mxGeometry x="620" y="30" width="60" height="30" as="geometry"/>
                </mxCell>
                <mxCell id="bAe2VsyeaCXoE5g0ojeS-4" value="" style="shape=curlyBracket;whiteSpace=wrap;html=1;rounded=1;strokeColor=#00FFFF;strokeWidth=3;" parent="CDULuu7c7V-zOSNpmikT-1" vertex="1">
                    <mxGeometry x="260" y="100" width="10" height="90" as="geometry"/>
                </mxCell>
                <mxCell id="bAe2VsyeaCXoE5g0ojeS-5" value="" style="shape=curlyBracket;whiteSpace=wrap;html=1;rounded=1;flipH=1;strokeColor=#00FFFF;strokeWidth=3;size=0.5;" parent="CDULuu7c7V-zOSNpmikT-1" vertex="1">
                    <mxGeometry x="360" y="100" width="10" height="90" as="geometry"/>
                </mxCell>
                <mxCell id="bAe2VsyeaCXoE5g0ojeS-6" value="Get: /classes" style="text;html=1;strokeColor=none;fillColor=none;align=center;verticalAlign=middle;whiteSpace=wrap;rounded=0;" parent="CDULuu7c7V-zOSNpmikT-1" vertex="1">
                    <mxGeometry x="125" y="70" width="100" height="30" as="geometry"/>
                </mxCell>
                <mxCell id="bAe2VsyeaCXoE5g0ojeS-7" value="Get: /worlds" style="text;html=1;strokeColor=none;fillColor=none;align=center;verticalAlign=middle;whiteSpace=wrap;rounded=0;" parent="CDULuu7c7V-zOSNpmikT-1" vertex="1">
                    <mxGeometry x="125" y="90" width="100" height="30" as="geometry"/>
                </mxCell>
                <mxCell id="bAe2VsyeaCXoE5g0ojeS-9" value="Get: /allies" style="text;html=1;strokeColor=none;fillColor=none;align=center;verticalAlign=middle;whiteSpace=wrap;rounded=0;" parent="CDULuu7c7V-zOSNpmikT-1" vertex="1">
                    <mxGeometry x="115" y="110" width="100" height="30" as="geometry"/>
                </mxCell>
                <mxCell id="bAe2VsyeaCXoE5g0ojeS-10" value="classes[]" style="text;html=1;strokeColor=none;fillColor=none;align=center;verticalAlign=middle;whiteSpace=wrap;rounded=0;" parent="CDULuu7c7V-zOSNpmikT-1" vertex="1">
                    <mxGeometry x="280" y="90" width="60" height="30" as="geometry"/>
                </mxCell>
                <mxCell id="bAe2VsyeaCXoE5g0ojeS-11" value="worlds[]" style="text;html=1;strokeColor=none;fillColor=none;align=center;verticalAlign=middle;whiteSpace=wrap;rounded=0;" parent="CDULuu7c7V-zOSNpmikT-1" vertex="1">
                    <mxGeometry x="280" y="120" width="60" height="30" as="geometry"/>
                </mxCell>
                <mxCell id="bAe2VsyeaCXoE5g0ojeS-12" value="allies[]" style="text;html=1;strokeColor=none;fillColor=none;align=center;verticalAlign=middle;whiteSpace=wrap;rounded=0;" parent="CDULuu7c7V-zOSNpmikT-1" vertex="1">
                    <mxGeometry x="280" y="145" width="60" height="30" as="geometry"/>
                </mxCell>
                <mxCell id="bAe2VsyeaCXoE5g0ojeS-15" value="UnderFetching" style="text;html=1;strokeColor=none;fillColor=none;align=center;verticalAlign=middle;whiteSpace=wrap;rounded=0;" parent="CDULuu7c7V-zOSNpmikT-1" vertex="1">
                    <mxGeometry x="280" y="60" width="60" height="30" as="geometry"/>
                </mxCell>
                <mxCell id="bAe2VsyeaCXoE5g0ojeS-16" value="" style="endArrow=none;html=1;exitX=0.002;exitY=0.389;exitDx=0;exitDy=0;exitPerimeter=0;strokeWidth=4;" parent="CDULuu7c7V-zOSNpmikT-1" source="bAe2VsyeaCXoE5g0ojeS-0" edge="1">
                    <mxGeometry width="50" height="50" relative="1" as="geometry">
                        <mxPoint x="380" y="220" as="sourcePoint"/>
                        <mxPoint x="470" y="208" as="targetPoint"/>
                    </mxGeometry>
                </mxCell>
                <mxCell id="bAe2VsyeaCXoE5g0ojeS-17" value="OverFetching" style="text;html=1;strokeColor=none;fillColor=none;align=center;verticalAlign=middle;whiteSpace=wrap;rounded=0;" parent="CDULuu7c7V-zOSNpmikT-1" vertex="1">
                    <mxGeometry x="280" y="240" width="60" height="30" as="geometry"/>
                </mxCell>
                <mxCell id="bAe2VsyeaCXoE5g0ojeS-18" value="Get: /tasks" style="text;html=1;strokeColor=none;fillColor=none;align=center;verticalAlign=middle;whiteSpace=wrap;rounded=0;" parent="CDULuu7c7V-zOSNpmikT-1" vertex="1">
                    <mxGeometry x="150" y="270" width="75" height="30" as="geometry"/>
                </mxCell>
                <mxCell id="bAe2VsyeaCXoE5g0ojeS-19" value="" style="shape=curlyBracket;whiteSpace=wrap;html=1;rounded=1;strokeColor=#00FFFF;strokeWidth=3;" parent="CDULuu7c7V-zOSNpmikT-1" vertex="1">
                    <mxGeometry x="260" y="290" width="10" height="90" as="geometry"/>
                </mxCell>
                <mxCell id="bAe2VsyeaCXoE5g0ojeS-20" value="" style="shape=curlyBracket;whiteSpace=wrap;html=1;rounded=1;flipH=1;strokeColor=#00FFFF;strokeWidth=3;size=0.5;" parent="CDULuu7c7V-zOSNpmikT-1" vertex="1">
                    <mxGeometry x="360" y="290" width="10" height="90" as="geometry"/>
                </mxCell>
                <mxCell id="bAe2VsyeaCXoE5g0ojeS-21" value="Nome usuario" style="text;html=1;strokeColor=none;fillColor=none;align=center;verticalAlign=middle;whiteSpace=wrap;rounded=0;" parent="CDULuu7c7V-zOSNpmikT-1" vertex="1">
                    <mxGeometry x="265" y="310" width="90" height="30" as="geometry"/>
                </mxCell>
                <mxCell id="bAe2VsyeaCXoE5g0ojeS-22" value="Email usuario" style="text;html=1;strokeColor=none;fillColor=none;align=center;verticalAlign=middle;whiteSpace=wrap;rounded=0;" parent="CDULuu7c7V-zOSNpmikT-1" vertex="1">
                    <mxGeometry x="265" y="330" width="90" height="30" as="geometry"/>
                </mxCell>
                <mxCell id="bAe2VsyeaCXoE5g0ojeS-23" value="Task[]" style="text;html=1;strokeColor=none;fillColor=none;align=center;verticalAlign=middle;whiteSpace=wrap;rounded=0;" parent="CDULuu7c7V-zOSNpmikT-1" vertex="1">
                    <mxGeometry x="260" y="350" width="60" height="30" as="geometry"/>
                </mxCell>
                <mxCell id="bAe2VsyeaCXoE5g0ojeS-24" value="ID usuario" style="text;html=1;strokeColor=none;fillColor=none;align=center;verticalAlign=middle;whiteSpace=wrap;rounded=0;" parent="CDULuu7c7V-zOSNpmikT-1" vertex="1">
                    <mxGeometry x="260" y="290" width="90" height="30" as="geometry"/>
                </mxCell>
                <mxCell id="bAe2VsyeaCXoE5g0ojeS-25" value="" style="rounded=1;whiteSpace=wrap;html=1;strokeColor=#00FFFF;strokeWidth=3;" parent="CDULuu7c7V-zOSNpmikT-1" vertex="1">
                    <mxGeometry x="-80" y="970" width="916" height="500" as="geometry"/>
                </mxCell>
                <mxCell id="bAe2VsyeaCXoE5g0ojeS-26" value="Me: Query que vai trazer todas as contas que o usuário tem acesso" style="text;html=1;strokeColor=none;fillColor=none;align=left;verticalAlign=middle;whiteSpace=wrap;rounded=0;fontSize=14;" parent="CDULuu7c7V-zOSNpmikT-1" vertex="1">
                    <mxGeometry x="25" y="770" width="575" height="30" as="geometry"/>
                </mxCell>
                <mxCell id="bAe2VsyeaCXoE5g0ojeS-27" value="CreateBill: Mutation para o usuário criar uma conta" style="text;html=1;strokeColor=none;fillColor=none;align=left;verticalAlign=middle;whiteSpace=wrap;rounded=0;fontSize=14;" parent="CDULuu7c7V-zOSNpmikT-1" vertex="1">
                    <mxGeometry x="25" y="800" width="575" height="30" as="geometry"/>
                </mxCell>
                <mxCell id="bAe2VsyeaCXoE5g0ojeS-30" value="DeleteBill: Mutation para o usuário deletar uma conta" style="text;html=1;strokeColor=none;fillColor=none;align=left;verticalAlign=middle;whiteSpace=wrap;rounded=0;fontSize=14;" parent="CDULuu7c7V-zOSNpmikT-1" vertex="1">
                    <mxGeometry x="25" y="830" width="575" height="30" as="geometry"/>
                </mxCell>
                <mxCell id="bAe2VsyeaCXoE5g0ojeS-31" value="UpdateBill: Mutation para o usuário atualizar uma conta" style="text;html=1;strokeColor=none;fillColor=none;align=left;verticalAlign=middle;whiteSpace=wrap;rounded=0;fontSize=14;" parent="CDULuu7c7V-zOSNpmikT-1" vertex="1">
                    <mxGeometry x="25" y="860" width="575" height="30" as="geometry"/>
                </mxCell>
                <mxCell id="bAe2VsyeaCXoE5g0ojeS-32" value="Financeiro" style="text;html=1;strokeColor=none;fillColor=none;align=center;verticalAlign=middle;whiteSpace=wrap;rounded=0;fontSize=20;" parent="CDULuu7c7V-zOSNpmikT-1" vertex="1">
                    <mxGeometry x="-20" y="980" width="60" height="30" as="geometry"/>
                </mxCell>
                <mxCell id="bAe2VsyeaCXoE5g0ojeS-33" value="" style="rounded=1;whiteSpace=wrap;html=1;fontSize=14;strokeColor=#3333FF;strokeWidth=3;" parent="CDULuu7c7V-zOSNpmikT-1" vertex="1">
                    <mxGeometry x="-42" y="1030" width="840" height="400" as="geometry"/>
                </mxCell>
                <mxCell id="bAe2VsyeaCXoE5g0ojeS-34" value="Serviço de contas" style="text;html=1;strokeColor=none;fillColor=none;align=center;verticalAlign=middle;whiteSpace=wrap;rounded=0;fontSize=14;" parent="CDULuu7c7V-zOSNpmikT-1" vertex="1">
                    <mxGeometry x="-50" y="1040" width="200" height="30" as="geometry"/>
                </mxCell>
                <mxCell id="bAe2VsyeaCXoE5g0ojeS-35" value="Modelagem de dados&lt;br&gt;Postgresql" style="shape=cylinder3;whiteSpace=wrap;html=1;boundedLbl=1;backgroundOutline=1;size=15;fontSize=14;strokeColor=#3333FF;strokeWidth=3;" parent="CDULuu7c7V-zOSNpmikT-1" vertex="1">
                    <mxGeometry x="-10" y="1080" width="140" height="100" as="geometry"/>
                </mxCell>
                <mxCell id="bAe2VsyeaCXoE5g0ojeS-38" style="edgeStyle=none;html=1;exitX=1;exitY=0.5;exitDx=0;exitDy=0;fontSize=14;strokeWidth=4;" parent="CDULuu7c7V-zOSNpmikT-1" source="bAe2VsyeaCXoE5g0ojeS-36" target="bAe2VsyeaCXoE5g0ojeS-37" edge="1">
                    <mxGeometry relative="1" as="geometry"/>
                </mxCell>
                <mxCell id="bAe2VsyeaCXoE5g0ojeS-36" value="Users" style="rounded=1;whiteSpace=wrap;html=1;fontSize=14;strokeColor=#3333FF;strokeWidth=3;" parent="CDULuu7c7V-zOSNpmikT-1" vertex="1">
                    <mxGeometry x="160" y="1100" width="120" height="60" as="geometry"/>
                </mxCell>
                <mxCell id="bAe2VsyeaCXoE5g0ojeS-37" value="Bills" style="rounded=1;whiteSpace=wrap;html=1;fontSize=14;strokeColor=#3333FF;strokeWidth=3;" parent="CDULuu7c7V-zOSNpmikT-1" vertex="1">
                    <mxGeometry x="440" y="1100" width="120" height="60" as="geometry"/>
                </mxCell>
                <mxCell id="bAe2VsyeaCXoE5g0ojeS-39" value="n:1" style="text;html=1;align=center;verticalAlign=middle;whiteSpace=wrap;rounded=0;fontSize=25;strokeWidth=2;strokeColor=none;fontColor=#FF3333;" parent="CDULuu7c7V-zOSNpmikT-1" vertex="1">
                    <mxGeometry x="320" y="1090" width="60" height="30" as="geometry"/>
                </mxCell>
                <mxCell id="bAe2VsyeaCXoE5g0ojeS-42" style="edgeStyle=none;html=1;exitX=1;exitY=0.5;exitDx=0;exitDy=0;entryX=0;entryY=0.5;entryDx=0;entryDy=0;fontSize=25;fontColor=#FFFFFF;strokeWidth=4;" parent="CDULuu7c7V-zOSNpmikT-1" source="bAe2VsyeaCXoE5g0ojeS-40" target="bAe2VsyeaCXoE5g0ojeS-41" edge="1">
                    <mxGeometry relative="1" as="geometry"/>
                </mxCell>
                <mxCell id="bAe2VsyeaCXoE5g0ojeS-40" value="Endpoints" style="rounded=1;whiteSpace=wrap;html=1;fontSize=25;fontColor=#FFFFFF;strokeColor=default;strokeWidth=2;" parent="CDULuu7c7V-zOSNpmikT-1" vertex="1">
                    <mxGeometry y="1220" width="150" height="60" as="geometry"/>
                </mxCell>
                <mxCell id="bAe2VsyeaCXoE5g0ojeS-41" value="Controller -&amp;gt; Resolver" style="rounded=1;whiteSpace=wrap;html=1;fontSize=25;fontColor=#FFFFFF;strokeColor=default;strokeWidth=2;" parent="CDULuu7c7V-zOSNpmikT-1" vertex="1">
                    <mxGeometry x="215" y="1220" width="280" height="60" as="geometry"/>
                </mxCell>
                <mxCell id="bAe2VsyeaCXoE5g0ojeS-45" style="edgeStyle=none;html=1;exitX=1;exitY=0.5;exitDx=0;exitDy=0;entryX=0;entryY=0.5;entryDx=0;entryDy=0;fontSize=25;fontColor=#FFFFFF;strokeWidth=4;" parent="CDULuu7c7V-zOSNpmikT-1" source="bAe2VsyeaCXoE5g0ojeS-43" edge="1">
                    <mxGeometry relative="1" as="geometry">
                        <mxPoint x="225" y="1356.25" as="targetPoint"/>
                    </mxGeometry>
                </mxCell>
                <mxCell id="bAe2VsyeaCXoE5g0ojeS-43" value="Services" style="rounded=1;whiteSpace=wrap;html=1;fontSize=25;fontColor=#FFFFFF;strokeColor=default;strokeWidth=2;" parent="CDULuu7c7V-zOSNpmikT-1" vertex="1">
                    <mxGeometry y="1320" width="150" height="70" as="geometry"/>
                </mxCell>
                <mxCell id="bAe2VsyeaCXoE5g0ojeS-47" value="" style="rounded=1;whiteSpace=wrap;html=1;strokeColor=#00FF00;strokeWidth=3;" parent="CDULuu7c7V-zOSNpmikT-1" vertex="1">
                    <mxGeometry x="1040" y="970" width="916" height="500" as="geometry"/>
                </mxCell>
                <mxCell id="bAe2VsyeaCXoE5g0ojeS-48" value="Comunicação" style="text;html=1;strokeColor=none;fillColor=none;align=center;verticalAlign=middle;whiteSpace=wrap;rounded=0;fontSize=25;fontColor=#FFFFFF;" parent="CDULuu7c7V-zOSNpmikT-1" vertex="1">
                    <mxGeometry x="1120" y="980" width="60" height="30" as="geometry"/>
                </mxCell>
                <mxCell id="bAe2VsyeaCXoE5g0ojeS-57" style="edgeStyle=none;html=1;exitX=0;exitY=0.25;exitDx=0;exitDy=0;entryX=1;entryY=0.25;entryDx=0;entryDy=0;fontSize=21;fontColor=#FFFFFF;strokeWidth=4;" parent="CDULuu7c7V-zOSNpmikT-1" source="bAe2VsyeaCXoE5g0ojeS-49" target="bAe2VsyeaCXoE5g0ojeS-51" edge="1">
                    <mxGeometry relative="1" as="geometry"/>
                </mxCell>
                <mxCell id="bAe2VsyeaCXoE5g0ojeS-49" value="" style="rounded=1;whiteSpace=wrap;html=1;fontSize=14;strokeWidth=3;strokeColor=#6666FF;" parent="CDULuu7c7V-zOSNpmikT-1" vertex="1">
                    <mxGeometry x="1078" y="1030" width="840" height="400" as="geometry"/>
                </mxCell>
                <mxCell id="bAe2VsyeaCXoE5g0ojeS-50" value="Envio de emails" style="text;html=1;strokeColor=none;fillColor=none;align=center;verticalAlign=middle;whiteSpace=wrap;rounded=0;fontSize=25;fontColor=#FFFFFF;" parent="CDULuu7c7V-zOSNpmikT-1" vertex="1">
                    <mxGeometry x="1110" y="1040" width="180" height="30" as="geometry"/>
                </mxCell>
                <mxCell id="bAe2VsyeaCXoE5g0ojeS-51" value="Message&lt;br&gt;Broker" style="rounded=1;whiteSpace=wrap;html=1;fontSize=25;strokeWidth=2;strokeColor=#FF0000;" parent="CDULuu7c7V-zOSNpmikT-1" vertex="1">
                    <mxGeometry x="880" y="1040" width="120" height="360" as="geometry"/>
                </mxCell>
                <mxCell id="bAe2VsyeaCXoE5g0ojeS-55" style="edgeStyle=none;html=1;exitX=1;exitY=0.5;exitDx=0;exitDy=0;entryX=-0.041;entryY=0.615;entryDx=0;entryDy=0;entryPerimeter=0;fontSize=21;fontColor=#FFFFFF;strokeWidth=4;" parent="CDULuu7c7V-zOSNpmikT-1" source="bAe2VsyeaCXoE5g0ojeS-53" target="bAe2VsyeaCXoE5g0ojeS-51" edge="1">
                    <mxGeometry relative="1" as="geometry"/>
                </mxCell>
                <mxCell id="bAe2VsyeaCXoE5g0ojeS-53" value="Verificação de contas" style="rounded=1;whiteSpace=wrap;html=1;fontSize=25;fontColor=#FFFFFF;strokeColor=default;strokeWidth=2;" parent="CDULuu7c7V-zOSNpmikT-1" vertex="1">
                    <mxGeometry x="225" y="1330" width="215" height="60" as="geometry"/>
                </mxCell>
                <mxCell id="bAe2VsyeaCXoE5g0ojeS-54" value="RN: Quando uma conta estiver no dia de vencimento, ao meio dia será disparado um email pro usuário" style="text;html=1;strokeColor=none;fillColor=none;align=left;verticalAlign=middle;whiteSpace=wrap;rounded=0;fontSize=21;fontColor=#FFFFFF;" parent="CDULuu7c7V-zOSNpmikT-1" vertex="1">
                    <mxGeometry x="70" y="980" width="635" height="30" as="geometry"/>
                </mxCell>
                <mxCell id="bAe2VsyeaCXoE5g0ojeS-56" value="PUB" style="text;html=1;strokeColor=none;fillColor=none;align=center;verticalAlign=middle;whiteSpace=wrap;rounded=0;fontSize=21;fontColor=#FFFFFF;rotation=-15;" parent="CDULuu7c7V-zOSNpmikT-1" vertex="1">
                    <mxGeometry x="600" y="1280" width="60" height="30" as="geometry"/>
                </mxCell>
                <mxCell id="bAe2VsyeaCXoE5g0ojeS-58" value="SUB" style="text;html=1;strokeColor=none;fillColor=none;align=center;verticalAlign=middle;whiteSpace=wrap;rounded=0;fontSize=21;fontColor=#FFFFFF;" parent="CDULuu7c7V-zOSNpmikT-1" vertex="1">
                    <mxGeometry x="1018" y="1100" width="60" height="30" as="geometry"/>
                </mxCell>
                <mxCell id="bAe2VsyeaCXoE5g0ojeS-59" value="Auth0" style="rounded=1;whiteSpace=wrap;html=1;fontSize=61;strokeWidth=2;strokeColor=#FF00FF;" parent="CDULuu7c7V-zOSNpmikT-1" vertex="1">
                    <mxGeometry x="600" y="640" width="740" height="240" as="geometry"/>
                </mxCell>
                <mxCell id="bAe2VsyeaCXoE5g0ojeS-60" value="Serviço de Autenticação" style="text;html=1;strokeColor=none;fillColor=none;align=center;verticalAlign=middle;whiteSpace=wrap;rounded=0;fontSize=14;fontColor=#FFFFFF;" parent="CDULuu7c7V-zOSNpmikT-1" vertex="1">
                    <mxGeometry x="620" y="650" width="80" height="30" as="geometry"/>
                </mxCell>
            </root>
        </mxGraphModel>
    </diagram>
    <diagram id="VjW026VAV1c-hz62Rkei" name="Aula03">
        <mxGraphModel dx="786" dy="1636" grid="1" gridSize="10" guides="1" tooltips="1" connect="1" arrows="1" fold="1" page="1" pageScale="1" pageWidth="827" pageHeight="1169" math="0" shadow="0">
            <root>
                <mxCell id="F3yHd7StfpUlkMcnqA3N-0"/>
                <mxCell id="F3yHd7StfpUlkMcnqA3N-1" parent="F3yHd7StfpUlkMcnqA3N-0"/>
                <mxCell id="F3yHd7StfpUlkMcnqA3N-2" value="" style="rounded=1;whiteSpace=wrap;html=1;strokeColor=#00FF00;strokeWidth=5;" vertex="1" parent="F3yHd7StfpUlkMcnqA3N-1">
                    <mxGeometry x="25" y="210" width="700" height="190" as="geometry"/>
                </mxCell>
                <mxCell id="F3yHd7StfpUlkMcnqA3N-3" value="Services/ useCases" style="text;html=1;strokeColor=none;fillColor=none;align=center;verticalAlign=middle;whiteSpace=wrap;rounded=0;" vertex="1" parent="F3yHd7StfpUlkMcnqA3N-1">
                    <mxGeometry x="10" y="210" width="170" height="30" as="geometry"/>
                </mxCell>
                <mxCell id="F3yHd7StfpUlkMcnqA3N-14" style="edgeStyle=none;html=1;exitX=0.5;exitY=1;exitDx=0;exitDy=0;entryX=0.5;entryY=0;entryDx=0;entryDy=0;" edge="1" parent="F3yHd7StfpUlkMcnqA3N-1" source="F3yHd7StfpUlkMcnqA3N-5" target="F3yHd7StfpUlkMcnqA3N-11">
                    <mxGeometry relative="1" as="geometry"/>
                </mxCell>
                <mxCell id="F3yHd7StfpUlkMcnqA3N-5" value="Prisma" style="rounded=1;whiteSpace=wrap;html=1;strokeColor=#3333FF;strokeWidth=5;" vertex="1" parent="F3yHd7StfpUlkMcnqA3N-1">
                    <mxGeometry x="20" width="710" height="130" as="geometry"/>
                </mxCell>
                <mxCell id="F3yHd7StfpUlkMcnqA3N-6" value="Gateway" style="text;html=1;strokeColor=none;fillColor=none;align=center;verticalAlign=middle;whiteSpace=wrap;rounded=0;" vertex="1" parent="F3yHd7StfpUlkMcnqA3N-1">
                    <mxGeometry x="20" width="60" height="30" as="geometry"/>
                </mxCell>
                <mxCell id="F3yHd7StfpUlkMcnqA3N-12" style="edgeStyle=none;html=1;exitX=1;exitY=0.5;exitDx=0;exitDy=0;entryX=0;entryY=0.5;entryDx=0;entryDy=0;" edge="1" parent="F3yHd7StfpUlkMcnqA3N-1" source="F3yHd7StfpUlkMcnqA3N-8" target="F3yHd7StfpUlkMcnqA3N-10">
                    <mxGeometry relative="1" as="geometry"/>
                </mxCell>
                <mxCell id="F3yHd7StfpUlkMcnqA3N-8" value="UserService" style="rounded=1;whiteSpace=wrap;html=1;strokeColor=#FFFF00;strokeWidth=5;" vertex="1" parent="F3yHd7StfpUlkMcnqA3N-1">
                    <mxGeometry x="60" y="262.5" width="150" height="85" as="geometry"/>
                </mxCell>
                <mxCell id="F3yHd7StfpUlkMcnqA3N-13" style="edgeStyle=none;html=1;exitX=1;exitY=0.5;exitDx=0;exitDy=0;entryX=0;entryY=0.5;entryDx=0;entryDy=0;" edge="1" parent="F3yHd7StfpUlkMcnqA3N-1" source="F3yHd7StfpUlkMcnqA3N-10" target="F3yHd7StfpUlkMcnqA3N-11">
                    <mxGeometry relative="1" as="geometry"/>
                </mxCell>
                <mxCell id="F3yHd7StfpUlkMcnqA3N-10" value="IUserRepository" style="rounded=0;whiteSpace=wrap;html=1;strokeColor=#FFFF00;strokeWidth=5;" vertex="1" parent="F3yHd7StfpUlkMcnqA3N-1">
                    <mxGeometry x="315" y="275" width="120" height="60" as="geometry"/>
                </mxCell>
                <mxCell id="F3yHd7StfpUlkMcnqA3N-11" value="UserRepository" style="ellipse;whiteSpace=wrap;html=1;strokeColor=#FFFF00;strokeWidth=5;" vertex="1" parent="F3yHd7StfpUlkMcnqA3N-1">
                    <mxGeometry x="510" y="263.75" width="160" height="82.5" as="geometry"/>
                </mxCell>
            </root>
        </mxGraphModel>
    </diagram>
</mxfile>